#!OML:ASF F:\VICON\USERDATA\INSTALL\rory3\rory3.ASF
:FULLY-SPECIFIED
:DEGREES
1144
root 8.946 17.8248 -8.99303 -6.69661 -73.2612 24.1624
lowerback 13.4799 -1.99508 -0.174357
upperback 8.41553 -3.13776 6.82422
thorax 1.77479 -1.98258 7.69139
lowerneck -11.087 -6.81634 -9.27294
upperneck 32.2952 -11.1082 6.85451
head 13.6979 -5.35143 2.56212
rclavicle 4.77083e-014 -7.95139e-015
rhumerus 14.4765 -34.2611 -72.3168
rradius 31.4795
rwrist -3.29717
rhand -33.1486 -20.7141
rfingers 7.12502
rthumb -6.3577 -50.5987
lclavicle 4.77083e-014 -7.95139e-015
lhumerus -1.29398 -59.7256 93.3266
lradius 74.9629
lwrist 61.439
lhand 0.538869 53.9246
lfingers 7.12502
lthumb 26.1064 -277.85
rfemur -42.9415 -10.7745 16.6204
rtibia 32.2242
rfoot -7.22972 -2.55086
rtoes 6.64911
lfemur -10.365 -4.20964 -21.2334
ltibia 19.1742
lfoot -12.7382 1.04607
ltoes -26.235
1145
root 8.9854 17.8164 -8.97935 -6.85511 -73.4672 24.2124
lowerback 13.3964 -1.86427 -0.330507
upperback 8.38999 -2.97942 6.79369
thorax 1.77599 -1.90612 7.7267
lowerneck -11.0624 -6.89857 -9.06822
upperneck 32.2214 -11.266 6.83732
head 13.661 -5.3978 2.49451
rclavicle -2.22639e-014 1.59028e-014
rhumerus 14.4255 -34.0789 -72.738
rradius 31.6579
rwrist -3.19517
rhand -33.0634 -20.8255
rfingers 7.12502
rthumb -6.27539 -50.7126
lclavicle -2.22639e-014 1.59028e-014
lhumerus -2.01675 -59.4672 93.6283
lradius 74.7326
lwrist 61.1108
lhand -0.70582 54.897
lfingers 7.12502
lthumb 24.9142 -276.707
rfemur -42.9797 -10.6585 16.5998
rtibia 32.2093
rfoot -7.0835 -2.60219
rtoes 6.03971
lfemur -10.2034 -4.05894 -21.4142
ltibia 19.002
lfoot -13.0747 1.40008
ltoes -25.5532
1146
root 9.033 17.8058 -8.97491 -7.06505 -73.5935 24.4209
lowerback 13.3281 -1.70582 -0.711223
upperback 8.3 -2.80167 6.8647
thorax 1.71596 -1.82892 8.00481
lowerneck -10.9742 -6.99191 -9.06036
upperneck 32.1264 -11.4043 6.84894
head 13.6156 -5.45727 2.47703
rclavicle 9.54166e-015 3.81667e-014
rhumerus 14.3754 -33.7072 -73.0487
rradius 31.7748
rwrist -3.19031
rhand -33.1101 -20.9207
rfingers 7.12502
rthumb -6.32052 -50.8064
lclavicle 9.54166e-015 3.81667e-014
lhumerus -2.83801 -59.1165 94.0113
lradius 74.5478
lwrist 60.9273
lhand -1.1234 55.3508
lfingers 7.12502
lthumb 24.5139 -276.198
rfemur -43.162 -10.5932 16.5583
rtibia 32.2075
rfoot -6.91428 -2.60423
rtoes 5.94159
lfemur -10.2154 -3.92339 -21.5705
ltibia 18.8916
lfoot -13.3831 1.63707
ltoes -24.5326
1147
root 9.08238 17.7971 -8.96117 -6.85212 -73.51 24.1524
lowerback 13.2799 -1.66667 -0.784596
upperback 8.20079 -2.74877 6.95117
thorax 1.63727 -1.80204 8.13641
lowerneck -10.9798 -7.11456 -9.15077
upperneck 32.1206 -11.5595 6.83916
head 13.6375 -5.53451 2.46159
rclavicle -5.40694e-014 1.25632e-013
rhumerus 14.2843 -33.02 -73.2892
rradius 31.8418
rwrist -3.42046
rhand -33.1363 -21.0077
rfingers 7.12502
rthumb -6.34583 -50.8927
lclavicle -5.40694e-014 1.25632e-013
lhumerus -3.68507 -58.705 94.389
lradius 74.3898
lwrist 60.9904
lhand -1.38269 55.2106
lfingers 7.12502
lthumb 24.2654 -276.305
rfemur -43.2484 -10.6168 16.4957
rtibia 32.2203
rfoot -6.91078 -2.66211
rtoes 6.41586
lfemur -10.243 -3.87696 -21.6945
ltibia 18.8325
lfoot -13.6401 2.09474
ltoes -24.4079
1148
root 9.12889 17.7874 -8.94463 -6.44727 -73.3997 23.6137
lowerback 13.2676 -1.66482 -0.687323
upperback 8.12159 -2.72946 7.02866
thorax 1.55621 -1.78633 8.16378
lowerneck -10.9856 -7.23227 -9.27255
upperneck 32.0929 -11.7174 6.89144
head 13.6576 -5.60924 2.47519
rclavicle 4.13472e-014 -9.85972e-014
rhumerus 14.2517 -32.3297 -73.6988
rradius 31.8651
rwrist -3.57716
rhand -32.9955 -21.0577
rfingers 7.12502
rthumb -6.20989 -50.9466
lclavicle 4.13472e-014 -9.85972e-014
lhumerus -4.59885 -58.23 94.8088
lradius 74.232
lwrist 61.0469
lhand -1.70176 54.8821
lfingers 7.12502
lthumb 23.9594 -276.593
rfemur -43.2347 -10.6858 16.4982
rtibia 32.2271
rfoot -6.927 -2.67379
rtoes 6.28501
lfemur -10.2399 -3.84694 -21.7554
ltibia 18.8173
lfoot -13.8566 2.42875
ltoes -24.3294
1149
root 9.17415 17.7781 -8.93243 -6.60752 -73.3718 23.659
lowerback 13.2446 -1.59447 -0.869756
upperback 8.04546 -2.64929 7.11923
thorax 1.49031 -1.75153 8.36189
lowerneck -10.8279 -7.34699 -9.42534
upperneck 31.9266 -11.8533 6.93253
head 13.5809 -5.68481 2.49886
rclavicle 0 -4.45278e-014
rhumerus 14.2678 -31.7315 -74.2265
rradius 31.9122
rwrist -3.75371
rhand -32.9 -21.0653
rfingers 7.12502
rthumb -6.11769 -50.957
lclavicle 0 -4.45278e-014
lhumerus -5.59835 -57.654 95.4204
lradius 73.9315
lwrist 60.9338
lhand -1.9419 54.4933
lfingers 7.12502
lthumb 23.7291 -276.952
rfemur -43.2273 -10.6408 16.3304
rtibia 32.2054
rfoot -6.96809 -2.76532
rtoes 5.99783
lfemur -10.266 -3.81811 -21.9521
ltibia 18.8872
lfoot -14.0598 2.74761
ltoes -24.4728
1150
root 9.22055 17.7726 -8.91802 -6.7056 -73.3042 23.6322
lowerback 13.2111 -1.51942 -0.944436
upperback 7.978 -2.5515 7.17669
thorax 1.42817 -1.70229 8.45779
lowerneck -10.8188 -7.46878 -9.49899
upperneck 31.9354 -12.0203 6.93644
head 13.6077 -5.76386 2.48446
rclavicle 2.54444e-014 -8.26944e-014
rhumerus 14.2178 -31.2 -74.8416
rradius 31.9603
rwrist -3.94429
rhand -32.7062 -20.9973
rfingers 7.12502
rthumb -5.93059 -50.8943
lclavicle 2.54444e-014 -8.26944e-014
lhumerus -6.48783 -57.2227 95.8655
lradius 73.6091
lwrist 60.8717
lhand -2.2805 54.2815
lfingers 7.12502
lthumb 23.4043 -277.122
rfemur -43.1786 -10.5267 16.1018
rtibia 32.1635
rfoot -7.05767 -2.96787
rtoes 5.85776
lfemur -10.3179 -3.82069 -22.1442
ltibia 19.0108
lfoot -14.2261 3.16901
ltoes -24.8041
1151
root 9.27107 17.7678 -8.90143 -6.21311 -73.1378 22.9058
lowerback 13.264 -1.50292 -0.736725
upperback 7.94404 -2.50547 7.2585
thorax 1.35126 -1.6719 8.42468
lowerneck -10.9 -7.57359 -9.55094
upperneck 31.9873 -12.1755 6.97338
head 13.6727 -5.82805 2.47795
rclavicle 2.8625e-014 -3.49861e-014
rhumerus 14.1743 -30.4427 -75.4735
rradius 31.9452
rwrist -4.38144
rhand -32.5905 -21.0111
rfingers 7.12502
rthumb -5.8189 -50.9112
lclavicle 2.8625e-014 -3.49861e-014
lhumerus -7.30857 -56.7484 96.1244
lradius 73.409
lwrist 60.8103
lhand -2.49849 54.1536
lfingers 7.12502
lthumb 23.1952 -277.223
rfemur -43.023 -10.5886 16.0862
rtibia 32.1234
rfoot -7.13336 -3.0882
rtoes 5.63565
lfemur -10.308 -3.90917 -22.1214
ltibia 19.1088
lfoot -14.3611 3.44472
ltoes -24.1293
1152
root 9.32136 17.763 -8.88509 -5.81778 -73.0256 22.2405
lowerback 13.3412 -1.45094 -0.536384
upperback 7.92038 -2.41457 7.35883
thorax 1.26735 -1.62077 8.41221
lowerneck -10.8177 -7.70849 -9.61256
upperneck 31.8496 -12.3382 6.95972
head 13.6171 -5.90732 2.45754
rclavicle 1.43125e-014 -7.31528e-014
rhumerus 14.1932 -29.7779 -76.2001
rradius 31.9037
rwrist -4.81876
rhand -32.5661 -20.8964
rfingers 7.12502
rthumb -5.79527 -50.7971
lclavicle 1.43125e-014 -7.31528e-014
lhumerus -8.241 -56.2293 96.4187
lradius 73.307
lwrist 60.6404
lhand -2.69079 53.7949
lfingers 7.12502
lthumb 23.0107 -277.559
rfemur -42.8078 -10.5114 15.9895
rtibia 32.0788
rfoot -7.3073 -3.22224
rtoes 6.21938
lfemur -10.2547 -3.9245 -22.088
ltibia 19.2105
lfoot -14.6032 3.49405
ltoes -23.1572
